# Blender 4.4.3
# www.blender.org
mtllib build_03.mtl
o Cube.007
v -1.683163 0.000000 1.683163
v -1.558677 7.000000 1.558677
v -1.683163 0.000000 -1.683163
v -1.558677 7.000000 -1.558677
v 1.683163 0.000000 1.683163
v 1.558677 7.000000 1.558677
v 1.683163 0.000000 -1.683163
v 1.558677 7.000000 -1.558677
v -1.683163 7.000000 1.683163
v -1.683163 7.000000 -1.683163
v 1.683163 7.000000 -1.683163
v 1.683163 7.000000 1.683163
v -1.558677 6.926042 1.558677
v -1.558677 6.926042 -1.558677
v 1.558677 6.926042 -1.558677
v 1.558677 6.926042 1.558677
v -1.683163 6.605059 1.683163
v -1.683163 6.605059 -1.683163
v 1.683163 6.605059 -1.683163
v 1.683163 6.605059 1.683163
v -1.683163 6.497534 -1.683163
v 1.683163 6.497534 -1.683163
v 1.683163 6.497534 1.683163
v -1.683163 6.497534 1.683163
v 1.808498 6.605059 0.147921
v 1.808498 6.605059 -0.147921
v 1.808498 6.497534 1.599396
v 1.808498 6.497534 -1.599396
v -1.683163 0.000000 -0.147921
v -1.683163 0.000000 0.147921
v -1.683163 7.000000 -0.147921
v -1.683163 7.000000 0.147921
v 1.683163 0.000000 0.147921
v 1.683163 0.000000 -0.147921
v 1.683163 7.000000 0.147921
v 1.683163 7.000000 -0.147921
v -1.558677 7.000000 -0.147921
v -1.558677 7.000000 0.147921
v 1.558677 7.000000 0.147921
v 1.558677 7.000000 -0.147921
v -1.558677 6.926042 0.147921
v -1.558677 6.926042 -0.147921
v 1.558677 6.926042 -0.147921
v 1.558677 6.926042 0.147921
v 1.683163 6.605059 -0.147921
v 1.683163 6.605059 0.147921
v -1.683163 6.605059 0.147921
v -1.683163 6.605059 -0.147921
v -1.683163 6.497534 0.147921
v -1.683163 6.497534 -0.147921
v 1.683163 6.497534 -0.147921
v 1.683163 6.497534 0.147921
v 1.843940 6.497534 -1.599396
v 1.843940 6.554737 -0.147921
v 1.843940 6.554737 0.147921
v 1.843940 6.497534 1.599396
v 1.808498 0.006026 -1.599396
v 1.808498 0.006026 1.599396
v 1.843940 0.006026 -1.599396
v 1.843940 0.006026 1.599396
v 1.423998 0.837358 1.722674
v 1.423998 1.418107 1.722674
v 0.354005 0.819051 1.676445
v 0.354005 1.436414 1.676445
v 0.386703 1.418107 1.722674
v 0.386703 0.837358 1.722674
v 1.456697 0.819051 1.676445
v 1.456697 1.436414 1.676445
v 0.386703 0.837358 1.763115
v 0.354005 0.819051 1.760545
v 0.386703 1.418107 1.763115
v 0.354005 1.436414 1.760545
v 1.423998 0.837358 1.763115
v 1.456697 0.819051 1.760545
v 1.423998 1.418107 1.763115
v 1.456697 1.436414 1.760545
v 1.423998 2.133820 1.722674
v 1.423998 2.714569 1.722674
v 0.354005 2.115513 1.676445
v 0.354005 2.732876 1.676445
v 0.386703 2.714569 1.722674
v 0.386703 2.133820 1.722674
v 1.456697 2.115513 1.676445
v 1.456697 2.732876 1.676445
v 0.386703 2.133820 1.763115
v 0.354005 2.115513 1.760545
v 0.386703 2.714569 1.763115
v 0.354005 2.732876 1.760545
v 1.423998 2.133820 1.763115
v 1.456697 2.115513 1.760545
v 1.423998 2.714569 1.763115
v 1.456697 2.732876 1.760545
v 1.423998 3.430282 1.722674
v 1.423998 4.011031 1.722674
v 0.354005 3.411975 1.676445
v 0.354005 4.029338 1.676445
v 0.386703 4.011031 1.722674
v 0.386703 3.430282 1.722674
v 1.456697 3.411975 1.676445
v 1.456697 4.029338 1.676445
v 0.386703 3.430282 1.763115
v 0.354005 3.411975 1.760545
v 0.386703 4.011031 1.763115
v 0.354005 4.029338 1.760545
v 1.423998 3.430282 1.763115
v 1.456697 3.411975 1.760545
v 1.423998 4.011031 1.763115
v 1.456697 4.029338 1.760545
v 1.423998 4.726744 1.722674
v 1.423998 5.307493 1.722674
v 0.354005 4.708437 1.676445
v 0.354005 5.325800 1.676445
v 0.386703 5.307493 1.722674
v 0.386703 4.726744 1.722674
v 1.456697 4.708437 1.676445
v 1.456697 5.325800 1.676445
v 0.386703 4.726744 1.763115
v 0.354005 4.708437 1.760545
v 0.386703 5.307493 1.763115
v 0.354005 5.325800 1.760545
v 1.423998 4.726744 1.763115
v 1.456697 4.708437 1.760545
v 1.423998 5.307493 1.763115
v 1.456697 5.325800 1.760545
v 1.423998 6.023206 1.722674
v 1.423998 6.603955 1.722674
v 0.354005 6.004899 1.676445
v 0.354005 6.622262 1.676445
v 0.386703 6.603955 1.722674
v 0.386703 6.023206 1.722674
v 1.456697 6.004899 1.676445
v 1.456697 6.622262 1.676445
v 0.386703 6.023206 1.763115
v 0.354005 6.004899 1.760545
v 0.386703 6.603955 1.763115
v 0.354005 6.622262 1.760545
v 1.423998 6.023206 1.763115
v 1.456697 6.004899 1.760545
v 1.423998 6.603955 1.763115
v 1.456697 6.622262 1.760545
v -0.340308 0.837358 1.722674
v -0.340308 1.418107 1.722674
v -1.410301 0.819051 1.676445
v -1.410301 1.436414 1.676445
v -1.377603 1.418107 1.722674
v -1.377603 0.837358 1.722674
v -0.307609 0.819051 1.676445
v -0.307609 1.436414 1.676445
v -1.377603 0.837358 1.763115
v -1.410301 0.819051 1.760545
v -1.377603 1.418107 1.763115
v -1.410301 1.436414 1.760545
v -0.340308 0.837358 1.763115
v -0.307609 0.819051 1.760545
v -0.340308 1.418107 1.763115
v -0.307609 1.436414 1.760545
v -0.340308 2.133820 1.722674
v -0.340308 2.714569 1.722674
v -1.410301 2.115513 1.676445
v -1.410301 2.732876 1.676445
v -1.377603 2.714569 1.722674
v -1.377603 2.133820 1.722674
v -0.307609 2.115513 1.676445
v -0.307609 2.732876 1.676445
v -1.377603 2.133820 1.763115
v -1.410301 2.115513 1.760545
v -1.377603 2.714569 1.763115
v -1.410301 2.732876 1.760545
v -0.340308 2.133820 1.763115
v -0.307609 2.115513 1.760545
v -0.340308 2.714569 1.763115
v -0.307609 2.732876 1.760545
v -0.340308 3.430282 1.722674
v -0.340308 4.011031 1.722674
v -1.410301 3.411975 1.676445
v -1.410301 4.029338 1.676445
v -1.377603 4.011031 1.722674
v -1.377603 3.430282 1.722674
v -0.307609 3.411975 1.676445
v -0.307609 4.029338 1.676445
v -1.377603 3.430282 1.763115
v -1.410301 3.411975 1.760545
v -1.377603 4.011031 1.763115
v -1.410301 4.029338 1.760545
v -0.340308 3.430282 1.763115
v -0.307609 3.411975 1.760545
v -0.340308 4.011031 1.763115
v -0.307609 4.029338 1.760545
v -0.340308 4.726744 1.722674
v -0.340308 5.307493 1.722674
v -1.410301 4.708437 1.676445
v -1.410301 5.325800 1.676445
v -1.377603 5.307493 1.722674
v -1.377603 4.726744 1.722674
v -0.307609 4.708437 1.676445
v -0.307609 5.325800 1.676445
v -1.377603 4.726744 1.763115
v -1.410301 4.708437 1.760545
v -1.377603 5.307493 1.763115
v -1.410301 5.325800 1.760545
v -0.340308 4.726744 1.763115
v -0.307609 4.708437 1.760545
v -0.340308 5.307493 1.763115
v -0.307609 5.325800 1.760545
v -0.340308 6.023206 1.722674
v -0.340308 6.603955 1.722674
v -1.410301 6.004899 1.676445
v -1.410301 6.622262 1.676445
v -1.377603 6.603955 1.722674
v -1.377603 6.023206 1.722674
v -0.307609 6.004899 1.676445
v -0.307609 6.622262 1.676445
v -1.377603 6.023206 1.763115
v -1.410301 6.004899 1.760545
v -1.377603 6.603955 1.763115
v -1.410301 6.622262 1.760545
v -0.340308 6.023206 1.763115
v -0.307609 6.004899 1.760545
v -0.340308 6.603955 1.763115
v -0.307609 6.622262 1.760545
vn -0.0000 1.0000 -0.0000
vn -0.0000 -0.0000 -1.0000
vn -0.0000 -0.0000 1.0000
vn -1.0000 -0.0000 -0.0000
vn 1.0000 -0.0000 -0.0000
vn -0.0000 -1.0000 -0.0000
vn -0.6470 0.7542 -0.1117
vn -0.6470 0.7542 0.1117
vn 0.8176 0.5758 -0.0000
vn 0.5783 0.8145 -0.0462
vn 0.5783 0.8145 0.0462
vn -0.0784 -0.0000 0.9969
vn 0.0784 -0.0000 0.9969
vn -0.0000 -0.1390 0.9903
vn -0.0000 0.1390 0.9903
vt 0.865755 0.740755
vt 0.865755 0.635985
vt 0.875000 0.635985
vt 0.875000 0.750000
vt 0.610895 0.250000
vt 0.625000 0.250000
vt 0.625000 0.500000
vt 0.610895 0.500000
vt 0.634245 0.509245
vt 0.634245 0.614015
vt 0.625000 0.614015
vt 0.610895 0.750000
vt 0.625000 0.750000
vt 0.625000 1.000000
vt 0.610895 1.000000
vt 0.865755 0.614015
vt 0.865755 0.509245
vt 0.875000 0.500000
vt 0.875000 0.614015
vt 0.634245 0.740755
vt 0.610895 0.000000
vt 0.625000 0.000000
vt 0.625000 0.114015
vt 0.610895 0.114015
vt 0.610895 0.614015
vt 0.607055 0.635985
vt 0.610895 0.635985
vt 0.607055 0.750000
vt 0.865755 0.614015
vt 0.634245 0.635985
vt 0.607055 1.000000
vt 0.607055 0.500000
vt 0.607055 0.614015
vt 0.607055 0.250000
vt 0.607055 0.000000
vt 0.607055 0.114015
vt 0.125000 0.635985
vt 0.375000 0.635985
vt 0.375000 0.750000
vt 0.125000 0.750000
vt 0.375000 0.250000
vt 0.375000 0.500000
vt 0.625000 0.635985
vt 0.375000 1.000000
vt 0.125000 0.500000
vt 0.375000 0.614015
vt 0.125000 0.614015
vt 0.607055 0.135985
vt 0.610895 0.135985
vt 0.865755 0.635985
vt 0.375000 0.135985
vt 0.625000 0.135985
vt 0.375000 0.114015
vt 0.375000 0.000000
vt 0.617587 0.757413
vt 0.617587 0.992587
vt 0.382413 0.757413
vt 0.382413 0.992587
vt 0.875000 0.742587
vt 0.625000 0.742587
vt 0.375000 0.007413
vt 0.625000 0.007413
vt 0.375000 0.742587
vt 0.125000 0.742587
s 0
usemtl Material.005
f 15/9/1 14/17/1 42/29/1 43/10/1
f 44/30/1 41/50/1 13/1/1 16/20/1
f 51/33/7 45/25/7 26/25/7 28/33/7
f 41/50/1 44/30/1 43/10/1 42/29/1
f 52/26/6 51/33/6 28/33/6 27/26/6
f 45/25/1 46/27/1 25/27/1 26/25/1
f 46/27/8 52/26/8 27/26/8 25/27/8
f 55/27/5 56/26/5 53/33/5 54/25/5
f 26/25/9 25/27/9 55/27/9 54/25/9
f 28/33/10 26/25/10 54/25/10 53/33/10
f 25/27/11 27/26/11 56/26/11 55/27/11
usemtl Material.008
f 2/1/1 38/2/1 32/3/1 9/4/1
f 18/5/2 10/6/2 11/7/2 19/8/2
f 8/9/1 40/10/1 36/11/1 11/7/1
f 20/12/3 12/13/3 9/14/3 17/15/3
f 37/16/1 4/17/1 10/18/1 31/19/1
f 2/1/2 6/20/2 16/20/2 13/1/2
f 17/21/4 9/22/4 32/23/4 47/24/4
f 4/17/1 8/9/1 11/7/1 10/18/1
f 19/8/5 11/7/5 36/11/5 45/25/5
f 6/20/1 2/1/1 9/4/1 12/13/1
f 52/26/5 46/27/5 20/12/5 23/28/5
f 8/9/3 4/17/3 14/17/3 15/9/3
f 6/20/4 39/30/4 44/30/4 16/20/4
f 23/28/3 20/12/3 17/15/3 24/31/3
f 22/32/5 19/8/5 45/25/5 51/33/5
f 21/34/2 18/5/2 19/8/2 22/32/2
f 24/35/4 17/21/4 47/24/4 49/36/4
f 30/37/6 33/38/6 5/39/6 1/40/6
f 3/41/2 21/34/2 22/32/2 7/42/2
f 39/30/1 6/20/1 12/13/1 35/43/1
f 5/39/3 23/28/3 24/31/3 1/44/3
f 33/38/5 52/26/5 23/28/5 5/39/5
f 3/45/6 7/42/6 34/46/6 29/47/6
f 50/48/4 48/49/4 18/5/4 21/34/4
f 38/50/5 2/1/5 13/1/5 41/2/5
f 40/10/4 8/9/4 15/9/4 43/10/4
f 4/17/5 37/29/5 42/16/5 14/17/5
f 7/42/5 22/32/5 51/33/5 34/46/5
f 29/51/4 50/48/4 21/34/4 3/41/4
f 46/27/5 35/43/5 12/13/5 20/12/5
f 48/49/4 31/52/4 10/6/4 18/5/4
f 52/26/5 33/38/5 34/46/5 51/33/5
f 50/48/4 29/51/4 30/53/4 49/36/4
f 48/49/4 50/48/4 49/36/4 47/24/4
f 38/50/5 41/2/5 42/16/5 37/29/5
f 40/10/4 43/10/4 44/30/4 39/30/4
f 39/30/1 35/43/1 36/11/1 40/10/1
f 37/16/1 31/19/1 32/3/1 38/2/1
f 33/38/6 30/37/6 29/47/6 34/46/6
f 35/43/5 46/27/5 45/25/5 36/11/5
f 31/52/4 48/49/4 47/24/4 32/23/4
f 1/54/4 24/35/4 49/36/4 30/53/4
usemtl Material.009
f 56/26/3 27/26/3 58/26/3 60/26/3
f 58/26/6 57/33/6 59/33/6 60/26/6
f 27/26/4 28/33/4 57/33/4 58/26/4
f 53/33/5 56/26/5 60/26/5 59/33/5
f 28/33/2 53/33/2 59/33/2 57/33/2
usemtl Material.001
f 75/55/6 71/56/6 65/56/6 62/55/6
f 63/41/2 64/6/2 68/7/2 67/42/2
f 68/7/1 64/18/1 72/59/1 76/60/1
f 70/61/4 72/62/4 64/6/4 63/41/4
f 67/42/5 68/7/5 76/60/5 74/63/5
f 69/58/12 71/56/12 72/14/12 70/44/12
f 75/55/13 73/57/13 74/63/13 76/60/13
f 70/44/14 74/39/14 73/57/14 69/58/14
f 76/13/15 72/14/15 71/56/15 75/55/15
f 63/45/6 67/42/6 74/63/6 70/64/6
f 69/58/1 73/57/1 61/57/1 66/58/1
f 73/57/4 75/55/4 62/55/4 61/57/4
f 71/56/5 69/58/5 66/58/5 65/56/5
f 91/55/6 87/56/6 81/56/6 78/55/6
f 79/41/2 80/6/2 84/7/2 83/42/2
f 84/7/1 80/18/1 88/59/1 92/60/1
f 86/61/4 88/62/4 80/6/4 79/41/4
f 83/42/5 84/7/5 92/60/5 90/63/5
f 85/58/12 87/56/12 88/14/12 86/44/12
f 91/55/13 89/57/13 90/63/13 92/60/13
f 86/44/14 90/39/14 89/57/14 85/58/14
f 92/13/15 88/14/15 87/56/15 91/55/15
f 79/45/6 83/42/6 90/63/6 86/64/6
f 85/58/1 89/57/1 77/57/1 82/58/1
f 89/57/4 91/55/4 78/55/4 77/57/4
f 87/56/5 85/58/5 82/58/5 81/56/5
f 107/55/6 103/56/6 97/56/6 94/55/6
f 95/41/2 96/6/2 100/7/2 99/42/2
f 100/7/1 96/18/1 104/59/1 108/60/1
f 102/61/4 104/62/4 96/6/4 95/41/4
f 99/42/5 100/7/5 108/60/5 106/63/5
f 101/58/12 103/56/12 104/14/12 102/44/12
f 107/55/13 105/57/13 106/63/13 108/60/13
f 102/44/14 106/39/14 105/57/14 101/58/14
f 108/13/15 104/14/15 103/56/15 107/55/15
f 95/45/6 99/42/6 106/63/6 102/64/6
f 101/58/1 105/57/1 93/57/1 98/58/1
f 105/57/4 107/55/4 94/55/4 93/57/4
f 103/56/5 101/58/5 98/58/5 97/56/5
f 123/55/6 119/56/6 113/56/6 110/55/6
f 111/41/2 112/6/2 116/7/2 115/42/2
f 116/7/1 112/18/1 120/59/1 124/60/1
f 118/61/4 120/62/4 112/6/4 111/41/4
f 115/42/5 116/7/5 124/60/5 122/63/5
f 117/58/12 119/56/12 120/14/12 118/44/12
f 123/55/13 121/57/13 122/63/13 124/60/13
f 118/44/14 122/39/14 121/57/14 117/58/14
f 124/13/15 120/14/15 119/56/15 123/55/15
f 111/45/6 115/42/6 122/63/6 118/64/6
f 117/58/1 121/57/1 109/57/1 114/58/1
f 121/57/4 123/55/4 110/55/4 109/57/4
f 119/56/5 117/58/5 114/58/5 113/56/5
f 139/55/6 135/56/6 129/56/6 126/55/6
f 127/41/2 128/6/2 132/7/2 131/42/2
f 132/7/1 128/18/1 136/59/1 140/60/1
f 134/61/4 136/62/4 128/6/4 127/41/4
f 131/42/5 132/7/5 140/60/5 138/63/5
f 133/58/12 135/56/12 136/14/12 134/44/12
f 139/55/13 137/57/13 138/63/13 140/60/13
f 134/44/14 138/39/14 137/57/14 133/58/14
f 140/13/15 136/14/15 135/56/15 139/55/15
f 127/45/6 131/42/6 138/63/6 134/64/6
f 133/58/1 137/57/1 125/57/1 130/58/1
f 137/57/4 139/55/4 126/55/4 125/57/4
f 135/56/5 133/58/5 130/58/5 129/56/5
f 155/55/6 151/56/6 145/56/6 142/55/6
f 143/41/2 144/6/2 148/7/2 147/42/2
f 148/7/1 144/18/1 152/59/1 156/60/1
f 150/61/4 152/62/4 144/6/4 143/41/4
f 147/42/5 148/7/5 156/60/5 154/63/5
f 149/58/12 151/56/12 152/14/12 150/44/12
f 155/55/13 153/57/13 154/63/13 156/60/13
f 150/44/14 154/39/14 153/57/14 149/58/14
f 156/13/15 152/14/15 151/56/15 155/55/15
f 143/45/6 147/42/6 154/63/6 150/64/6
f 149/58/1 153/57/1 141/57/1 146/58/1
f 153/57/4 155/55/4 142/55/4 141/57/4
f 151/56/5 149/58/5 146/58/5 145/56/5
f 171/55/6 167/56/6 161/56/6 158/55/6
f 159/41/2 160/6/2 164/7/2 163/42/2
f 164/7/1 160/18/1 168/59/1 172/60/1
f 166/61/4 168/62/4 160/6/4 159/41/4
f 163/42/5 164/7/5 172/60/5 170/63/5
f 165/58/12 167/56/12 168/14/12 166/44/12
f 171/55/13 169/57/13 170/63/13 172/60/13
f 166/44/14 170/39/14 169/57/14 165/58/14
f 172/13/15 168/14/15 167/56/15 171/55/15
f 159/45/6 163/42/6 170/63/6 166/64/6
f 165/58/1 169/57/1 157/57/1 162/58/1
f 169/57/4 171/55/4 158/55/4 157/57/4
f 167/56/5 165/58/5 162/58/5 161/56/5
f 187/55/6 183/56/6 177/56/6 174/55/6
f 175/41/2 176/6/2 180/7/2 179/42/2
f 180/7/1 176/18/1 184/59/1 188/60/1
f 182/61/4 184/62/4 176/6/4 175/41/4
f 179/42/5 180/7/5 188/60/5 186/63/5
f 181/58/12 183/56/12 184/14/12 182/44/12
f 187/55/13 185/57/13 186/63/13 188/60/13
f 182/44/14 186/39/14 185/57/14 181/58/14
f 188/13/15 184/14/15 183/56/15 187/55/15
f 175/45/6 179/42/6 186/63/6 182/64/6
f 181/58/1 185/57/1 173/57/1 178/58/1
f 185/57/4 187/55/4 174/55/4 173/57/4
f 183/56/5 181/58/5 178/58/5 177/56/5
f 203/55/6 199/56/6 193/56/6 190/55/6
f 191/41/2 192/6/2 196/7/2 195/42/2
f 196/7/1 192/18/1 200/59/1 204/60/1
f 198/61/4 200/62/4 192/6/4 191/41/4
f 195/42/5 196/7/5 204/60/5 202/63/5
f 197/58/12 199/56/12 200/14/12 198/44/12
f 203/55/13 201/57/13 202/63/13 204/60/13
f 198/44/14 202/39/14 201/57/14 197/58/14
f 204/13/15 200/14/15 199/56/15 203/55/15
f 191/45/6 195/42/6 202/63/6 198/64/6
f 197/58/1 201/57/1 189/57/1 194/58/1
f 201/57/4 203/55/4 190/55/4 189/57/4
f 199/56/5 197/58/5 194/58/5 193/56/5
f 219/55/6 215/56/6 209/56/6 206/55/6
f 207/41/2 208/6/2 212/7/2 211/42/2
f 212/7/1 208/18/1 216/59/1 220/60/1
f 214/61/4 216/62/4 208/6/4 207/41/4
f 211/42/5 212/7/5 220/60/5 218/63/5
f 213/58/12 215/56/12 216/14/12 214/44/12
f 219/55/13 217/57/13 218/63/13 220/60/13
f 214/44/14 218/39/14 217/57/14 213/58/14
f 220/13/15 216/14/15 215/56/15 219/55/15
f 207/45/6 211/42/6 218/63/6 214/64/6
f 213/58/1 217/57/1 205/57/1 210/58/1
f 217/57/4 219/55/4 206/55/4 205/57/4
f 215/56/5 213/58/5 210/58/5 209/56/5
usemtl Material.002
f 61/57/3 62/55/3 65/56/3 66/58/3
f 77/57/3 78/55/3 81/56/3 82/58/3
f 93/57/3 94/55/3 97/56/3 98/58/3
f 109/57/3 110/55/3 113/56/3 114/58/3
f 125/57/3 126/55/3 129/56/3 130/58/3
f 141/57/3 142/55/3 145/56/3 146/58/3
f 157/57/3 158/55/3 161/56/3 162/58/3
f 173/57/3 174/55/3 177/56/3 178/58/3
f 189/57/3 190/55/3 193/56/3 194/58/3
f 205/57/3 206/55/3 209/56/3 210/58/3
